<?xml version="1.0" encoding="UTF-8" standalone="no"?>
<!-- Created with Inkscape (http://www.inkscape.org/) -->

<svg
   width="17.99431mm"
   height="5.5562501mm"
   viewBox="0 0 17.99431 5.5562501"
   version="1.1"
   id="svg1"
   xmlns="http://www.w3.org/2000/svg"
   xmlns:svg="http://www.w3.org/2000/svg">
  <defs
     id="defs1" />
  <g
     id="layer1"
     transform="translate(-123.825,-163.24792)">
    <path
       d="m 128.54781,164.21629 -0.64558,3.62215 h 1.29646 l 0.64558,-3.62215 z m 1.74096,0 -0.17198,0.96838 h 1.57956 l -2.05316,2.65377 h 1.47373 l 1.11918,-1.44462 -0.25664,1.44462 h 1.29646 l 0.32279,-1.80975 h -1.0795 l 1.40229,-1.8124 h -3.63008 z m -2.1881,0 h -1.47373 l 0.74877,-0.96837 h -1.47109 l -1.40229,1.80975 h 1.47373 l -2.15106,2.77812 h 1.47373 l 1.11919,-1.44462 -0.25665,1.44462 h 1.29646 l 0.32279,-1.80975 h -1.0795 l 1.39965,-1.81239 z m 6.26533,0 -0.64558,3.62215 h 1.29645 l 0.64559,-3.62215 z m 1.74096,0 -0.17198,0.96838 h 1.57162 l -2.04523,2.65377 h 1.47109 l 1.10596,-1.43404 -0.25665,1.43404 h 1.29646 l 0.32279,-1.80975 h -1.07421 l 1.397,-1.8124 h -3.6195 z m 4.87098,2.65113 0.4736,-2.65377 h -1.29381 l -0.64558,3.62214 h 0.83872 l -0.17197,0.96838 h 1.29645 l 0.34396,-1.93675 h -0.83873 z"
       id="path1"
       style="fill:#00ffa3;fill-opacity:1;stroke-width:0.264583" />
  </g>
</svg>
